<svg xmlns="http://www.w3.org/2000/svg" viewBox="0 0 55 65" width="55" height="65">
  <path d="M18.932 50.22s-2.246 1.367 1.563 1.758c4.6.586 7.032.488 12.11-.488 0 0 1.367.88 3.223 1.563C24.4 57.936 9.946 52.76 18.932 50.22zm-1.465-6.348s-2.442 1.856 1.367 2.246c4.98.488 8.888.586 15.627-.78 0 0 .88.977 2.344 1.465-13.77 4.102-29.202.39-19.338-2.93zm26.956 11.134s1.66 1.367-1.856 2.442c-6.544 1.953-27.444 2.54-33.304 0-2.05-.88 1.856-2.15 3.125-2.344 1.27-.293 1.953-.293 1.953-.293-2.246-1.563-14.943 3.223-6.446 4.6 23.342 3.81 42.583-1.66 36.527-4.395zM20.006 37.23s-10.646 2.54-3.81 3.418c2.93.39 8.692.293 14.064-.098 4.395-.39 8.8-1.172 8.8-1.172s-1.563.684-2.637 1.367C25.573 43.58 4.77 42.31 10.728 39.38c5.08-2.442 9.278-2.15 9.278-2.15zM39.05 47.876c10.94-5.665 5.86-11.134 2.344-10.45-.88.195-1.27.39-1.27.39s.293-.586.977-.78c6.934-2.442 12.404 7.325-2.246 11.134 0 0 .098-.098.195-.293zm-17.97 15.43c10.548.684 26.663-.39 27.054-5.372 0 0-.78 1.953-8.692 3.418-8.985 1.66-20.12 1.465-26.663.39 0 0 1.367 1.172 8.302 1.563z" fill="#4e7896"/>
  <path d="M32.4 5s6.055 6.153-5.762 15.43c-9.474 7.52-2.15 11.818 0 16.7-5.567-4.98-9.57-9.376-6.837-13.478C23.815 17.6 34.85 14.67 32.4 5zm-3.125 28.03c2.832 3.223-.78 6.153-.78 6.153s7.227-3.71 3.907-8.302c-3.028-4.395-5.372-6.544 7.325-13.87 0 0-20.022 4.98-10.45 16.017z" fill="#f58219"/>
</svg>
